<?xml version="1.0" encoding="utf-8"?>
<!-- Generator: Adobe Illustrator 24.3.0, SVG Export Plug-In . SVG Version: 6.00 Build 0)  -->
<svg version="1.2" baseProfile="tiny" xmlns="http://www.w3.org/2000/svg" xmlns:xlink="http://www.w3.org/1999/xlink" x="0px"
	 y="0px" viewBox="0 0 1353.07 513.07" overflow="visible" xml:space="preserve">
<g id="lijnen">
	<rect x="478.27" y="168.7" fill="#DA0943" width="147.22" height="2.62"/>
	<g>
		<polygon fill="#FFFFFF" points="510.03,176.23 521.05,176.23 510.29,170.01 521.05,163.8 510.03,163.8 499.27,170.01 		"/>
	</g>
	<rect x="746.1" y="168.7" fill="#67B9E8" width="147.22" height="2.62"/>
	<rect x="746.1" y="143.61" fill="#DA0943" width="147.22" height="2.62"/>
	<rect x="478.27" y="143.61" fill="#FBBC18" width="147.22" height="2.62"/>
	<g>
		<polygon fill="#FFFFFF" points="593.37,138.7 582.36,138.7 593.11,144.92 582.36,151.13 593.37,151.13 604.13,144.92 		"/>
	</g>
	<g>
		<polygon fill="#DA0943" points="520.39,177.36 507.66,170.02 520.39,162.66 521.7,164.94 512.91,170.01 521.7,175.09 		"/>
	</g>
	<g>
		<polygon fill="#FBBC18" points="583.01,152.27 581.7,149.99 590.49,144.92 581.7,139.84 583.01,137.57 595.74,144.92 		"/>
	</g>
	<path fill="#DA0943" d="M641.67,374.27h-24.59v-2.62h24.59c12.48,0,22.64-10.16,22.64-22.64V215.21h2.62V349
		C666.93,362.93,655.6,374.27,641.67,374.27z"/>
	<path fill="#67B9E8" d="M633.06,348.74h-13.8v-2.62h13.8c3.68,0,6.67-2.99,6.67-6.67V204.91h2.62v134.53
		C642.35,344.57,638.18,348.74,633.06,348.74z"/>
	<path fill="#FBBC18" d="M490.33,373.83h-26.49c-13.93,0-25.26-11.33-25.26-25.27V215.21h2.62v133.35
		c0,12.48,10.16,22.64,22.64,22.64h26.49V373.83z"/>
	<path fill="#67B9E8" d="M472.45,348.3c-2.48,0-4.82-0.97-6.57-2.72c-1.76-1.76-2.72-4.09-2.72-6.57V204.91h2.62V339
		c0,3.68,2.99,6.67,6.67,6.67l15.79,0v2.62H472.45C472.45,348.3,472.45,348.3,472.45,348.3z"/>
	<g>
		<polygon fill="#FFFFFF" points="671.83,306.09 671.83,295.08 665.62,305.84 659.41,295.08 659.41,306.09 665.62,316.85 		"/>
	</g>
	<g>
		<polygon fill="#DA0943" points="665.62,308.46 658.27,295.73 660.54,294.42 665.62,303.21 670.69,294.42 672.97,295.73 		"/>
	</g>
	<g>
		<polygon fill="#FFFFFF" points="634.83,245.97 634.83,256.98 641.04,246.23 647.25,256.98 647.25,245.97 641.04,235.21 		"/>
	</g>
	<g>
		<polygon fill="#67B9E8" points="646.12,257.64 641.04,248.85 635.97,257.64 633.69,256.33 641.04,243.6 648.39,256.33 		"/>
	</g>
	<g>
		<polygon fill="#FFFFFF" points="433.68,305.24 433.68,294.23 439.89,304.99 446.1,294.23 446.1,305.24 439.89,316 		"/>
	</g>
	<g>
		<polygon fill="#FBBC18" points="439.89,307.61 432.54,294.88 434.82,293.57 439.89,302.36 444.97,293.57 447.24,294.88 		"/>
	</g>
	<g>
		<polygon fill="#FFFFFF" points="470.68,247.12 470.68,258.13 464.47,247.38 458.26,258.13 458.26,247.12 464.47,236.36 		"/>
	</g>
	<g>
		<polygon fill="#67B9E8" points="459.39,258.79 457.11,257.48 464.47,244.75 471.81,257.48 469.54,258.79 464.47,250 		"/>
	</g>
	<rect x="1022.74" y="143.2" fill="#67B9E8" width="140.74" height="2.62"/>
	<rect x="1021.32" y="168.3" width="142.15" height="2.62"/>
</g>
<g id="picto_x27_s">
	<g>
		<g>
			<polygon fill="#DA0943" points="687.07,79 720.61,98.37 754.16,117.74 754.15,156.47 754.15,195.21 720.62,214.56 687.08,233.93 
				653.54,214.56 619.99,195.19 619.99,156.45 619.98,117.73 653.52,98.37 			"/>
		</g>
		<g>
			<g>
				<path fill="#FFFFFF" d="M687.06,197.8c-0.26,0-0.51-0.13-0.65-0.38c-0.21-0.36-0.08-0.82,0.27-1.02l34.84-20.11v-40.24
					c0-0.41,0.34-0.75,0.75-0.75s0.75,0.34,0.75,0.75v40.67c0,0.27-0.14,0.52-0.38,0.65l-35.22,20.33
					C687.32,197.77,687.19,197.8,687.06,197.8z"/>
				<path fill="none" stroke="#FFFFFF" stroke-width="1.5" stroke-linecap="round" stroke-linejoin="round" d="M651.84,136.05"/>
				<path fill="#FFFFFF" d="M687.06,184.24c-0.13,0-0.26-0.03-0.38-0.1l-35.21-20.34c-0.23-0.13-0.38-0.38-0.38-0.65l-0.01-13.55
					c0-0.27,0.14-0.52,0.38-0.65c0.23-0.13,0.52-0.13,0.75,0l35.22,20.33c0.23,0.13,0.38,0.38,0.38,0.65v13.56
					c0,0.27-0.14,0.52-0.38,0.65C687.32,184.21,687.19,184.24,687.06,184.24z M652.6,162.72l33.71,19.47v-11.83l-33.72-19.46
					L652.6,162.72z"/>
				<path fill="#FFFFFF" d="M687.06,157.14c-0.26,0-0.51-0.13-0.65-0.38c-0.21-0.36-0.08-0.82,0.27-1.02l34.09-19.69l-33.72-19.46
					l-34.85,20.11c-0.36,0.21-0.82,0.08-1.02-0.27c-0.21-0.36-0.08-0.82,0.27-1.02l35.22-20.33c0.23-0.13,0.52-0.13,0.75,0
					l35.22,20.33c0.23,0.13,0.38,0.38,0.38,0.65c0,0.27-0.14,0.52-0.38,0.65l-35.22,20.34
					C687.32,157.11,687.19,157.14,687.06,157.14z"/>
				<path fill="#FFFFFF" d="M687.06,197.8c-0.13,0-0.26-0.03-0.38-0.1l-35.22-20.33c-0.23-0.13-0.38-0.38-0.38-0.65v-13.56
					c0-0.41,0.34-0.75,0.75-0.75s0.75,0.34,0.75,0.75v13.12l33.72,19.47v-12.25c0-0.41,0.34-0.75,0.75-0.75s0.75,0.34,0.75,0.75
					v13.55c0,0.27-0.14,0.52-0.38,0.65C687.32,197.76,687.19,197.8,687.06,197.8z"/>
				<path fill="#FFFFFF" d="M679.72,172.38c0-0.94,0.66-1.27,1.46-0.75c0.81,0.51,1.47,1.69,1.47,2.63c0,0.94-0.66,1.27-1.47,0.76
					C680.38,174.5,679.72,173.32,679.72,172.38z"/>
				<path fill="#FFFFFF" d="M679.72,185.94c0-0.94,0.66-1.27,1.46-0.76c0.81,0.52,1.47,1.69,1.47,2.63c0,0.94-0.66,1.27-1.47,0.76
					C680.38,188.05,679.72,186.87,679.72,185.94z"/>
				<path fill="none" stroke="#FFFFFF" stroke-width="1.5" stroke-linecap="round" stroke-linejoin="round" d="M687.06,197.05"/>
				<path fill="none" stroke="#FFFFFF" stroke-width="1.5" stroke-linecap="round" stroke-linejoin="round" d="M651.84,176.72"/>
				<path fill="#FFFFFF" d="M687.06,170.69c-0.41,0-0.75-0.34-0.75-0.75v-13.11l-33.72-19.48l0.01,12.26c0,0.41-0.34,0.75-0.75,0.75
					h0c-0.41,0-0.75-0.34-0.75-0.75l-0.01-13.56c0-0.27,0.14-0.52,0.38-0.65c0.23-0.13,0.52-0.13,0.75,0l35.22,20.34
					c0.23,0.13,0.38,0.38,0.38,0.65v13.55C687.81,170.35,687.48,170.69,687.06,170.69z"/>
				<path fill="#FFFFFF" d="M679.72,158.83c0-0.94,0.66-1.27,1.46-0.76c0.81,0.52,1.47,1.69,1.47,2.64c0,0.93-0.66,1.27-1.47,0.76
					C680.38,160.94,679.72,159.76,679.72,158.83z"/>
				<path fill="#FFFFFF" d="M687.06,170.69c-0.26,0-0.51-0.13-0.65-0.38c-0.21-0.36-0.08-0.82,0.27-1.02l35.22-20.33
					c0.36-0.21,0.82-0.08,1.02,0.27c0.21,0.36,0.08,0.82-0.27,1.02l-35.22,20.33C687.32,170.65,687.19,170.69,687.06,170.69z"/>
				<path fill="#FFFFFF" d="M687.06,184.24c-0.26,0-0.51-0.13-0.65-0.38c-0.21-0.36-0.08-0.82,0.27-1.02l35.22-20.34
					c0.36-0.21,0.82-0.08,1.02,0.27c0.21,0.36,0.08,0.82-0.27,1.02l-35.22,20.34C687.32,184.21,687.19,184.24,687.06,184.24z"/>
			</g>
		</g>
	</g>
	<g>
		<path d="M1274.04,225.98h-93.31c-10.87,0-19.71-8.84-19.71-19.71v-93.31c0-10.87,8.84-19.71,19.71-19.71h93.32
			c10.87,0,19.71,8.84,19.71,19.71v93.31C1293.75,217.14,1284.91,225.98,1274.04,225.98z M1180.72,95.87
			c-9.42,0-17.09,7.67-17.09,17.09v93.31c0,9.42,7.67,17.09,17.09,17.09h93.31c9.42,0,17.09-7.66,17.09-17.09v-93.31
			c0-9.42-7.66-17.08-17.08-17.08H1180.72z"/>
		<rect x="1226.82" y="94.56" width="1.12" height="130.11"/>
		<rect x="1162.32" y="159.05" width="130.11" height="1.12"/>
		<g>
			<g>
				<path d="M1272.89,138.75h-30.96c-1.5,0-2.73-1.22-2.73-2.73v-20.98c0-1.5,1.22-2.73,2.73-2.73h30.96c1.5,0,2.73,1.22,2.73,2.73
					v20.98C1275.62,137.52,1274.4,138.75,1272.89,138.75z M1241.93,113.82c-0.68,0-1.23,0.55-1.23,1.23v20.98
					c0,0.68,0.55,1.23,1.23,1.23h30.96c0.68,0,1.23-0.55,1.23-1.23v-20.98c0-0.68-0.55-1.23-1.23-1.23H1241.93z"/>
				<path d="M1275.69,147.16h-36.55c-1.5,0-2.73-1.22-2.73-2.73c0-1.5,1.22-2.73,2.73-2.73h36.55c1.5,0,2.73,1.22,2.73,2.73
					C1278.42,145.94,1277.19,147.16,1275.69,147.16z M1239.14,143.21c-0.68,0-1.23,0.55-1.23,1.23c0,0.68,0.55,1.23,1.23,1.23h36.55
					c0.68,0,1.23-0.55,1.23-1.23c0-0.68-0.55-1.23-1.23-1.23H1239.14z"/>
			</g>
		</g>
		<g>
			<g>
				<path d="M1211.18,140.74h-30.96c-1.5,0-2.73-1.22-2.73-2.72v-23.21c0-1.51,1.22-2.73,2.73-2.73h30.96
					c1.51,0,2.73,1.22,2.73,2.73v23.21C1213.91,139.52,1212.69,140.74,1211.18,140.74z M1180.22,113.58c-0.68,0-1.23,0.55-1.23,1.23
					v23.21c0,0.68,0.55,1.22,1.23,1.22h30.96c0.68,0,1.23-0.55,1.23-1.22v-23.21c0-0.68-0.55-1.23-1.23-1.23H1180.22z"/>
				<path d="M1208.39,146.93h-25.38c-0.41,0-0.75-0.34-0.75-0.75s0.34-0.75,0.75-0.75h25.38c0.41,0,0.75,0.34,0.75,0.75
					S1208.8,146.93,1208.39,146.93z"/>
				<path d="M1195.7,146.93c-0.41,0-0.75-0.34-0.75-0.75v-6.19c0-0.41,0.34-0.75,0.75-0.75s0.75,0.34,0.75,0.75v6.19
					C1196.45,146.59,1196.12,146.93,1195.7,146.93z"/>
			</g>
		</g>
		<g>
			<g>
				<path d="M1269.27,211.75h-25.09c-1.62,0-2.95-1.32-2.95-2.95v-35.13c0-1.62,1.32-2.95,2.95-2.95h25.09
					c1.63,0,2.95,1.32,2.95,2.95v35.13C1272.22,210.43,1270.89,211.75,1269.27,211.75z M1244.17,172.23c-0.8,0-1.45,0.65-1.45,1.45
					v35.13c0,0.8,0.65,1.45,1.45,1.45h25.09c0.8,0,1.45-0.65,1.45-1.45v-35.13c0-0.8-0.65-1.45-1.45-1.45H1244.17z"/>
				<path d="M1257.36,206.75c0,0.7-0.57,1.27-1.27,1.27c-0.7,0-1.27-0.57-1.27-1.27c0-0.7,0.57-1.27,1.27-1.27
					C1256.78,205.48,1257.36,206.05,1257.36,206.75z"/>
				<path d="M1271.47,203.36h-29.49c-0.41,0-0.75-0.34-0.75-0.75s0.34-0.75,0.75-0.75h29.49c0.41,0,0.75,0.34,0.75,0.75
					S1271.88,203.36,1271.47,203.36z"/>
			</g>
		</g>
		<g>
			<g>
				<path d="M1202.55,207.88h-12.85c-1.5,0-2.73-1.22-2.73-2.73V178.4c0-1.5,1.22-2.73,2.73-2.73h12.85c1.5,0,2.73,1.22,2.73,2.73
					v26.75C1205.28,206.66,1204.06,207.88,1202.55,207.88z M1189.71,177.18c-0.68,0-1.23,0.55-1.23,1.23v26.75
					c0,0.68,0.55,1.23,1.23,1.23h12.85c0.68,0,1.23-0.55,1.23-1.23V178.4c0-0.68-0.55-1.23-1.23-1.23H1189.71z"/>
				<path d="M1196.7,203.3c0,0.63-0.52,1.14-1.14,1.14c-0.63,0-1.14-0.51-1.14-1.14c0-0.63,0.51-1.14,1.14-1.14
					C1196.19,202.16,1196.7,202.67,1196.7,203.3z"/>
				<path d="M1204.53,200.33h-16.8c-0.41,0-0.75-0.34-0.75-0.75s0.34-0.75,0.75-0.75h16.8c0.41,0,0.75,0.34,0.75,0.75
					S1204.95,200.33,1204.53,200.33z"/>
			</g>
		</g>
	</g>
</g>
<g id="pijlen">
	<g>
		<polygon fill="#FFFFFF" points="861.2,138.7 850.19,138.7 860.94,144.92 850.19,151.13 861.2,151.13 871.96,144.92 		"/>
	</g>
	<g>
		<polygon fill="#FFFFFF" points="778.86,176.23 789.88,176.23 779.12,170.01 789.88,163.8 778.86,163.8 768.1,170.01 		"/>
	</g>
	<g>
		<polygon fill="#67B9E8" points="789.22,177.36 776.49,170.02 789.22,162.66 790.53,164.94 781.74,170.01 790.53,175.09 		"/>
	</g>
	<g>
		<polygon fill="#DA0943" points="850.84,152.27 849.53,149.99 858.32,144.92 849.53,139.84 850.84,137.57 863.57,144.92 		"/>
	</g>
</g>
<g id="teksten">
	<rect x="215.35" y="168.71" fill="#FBBC18" width="136.98" height="2.62"/>
	<rect x="214.41" y="143.61" fill="#67B9E8" width="161.85" height="2.62"/>
	<g>
		<polygon fill="#FFFFFF" points="323.21,138.71 312.2,138.71 322.95,144.92 312.2,151.13 323.21,151.13 333.97,144.92 		"/>
	</g>
	<g>
		<polygon fill="#FFFFFF" points="240.87,176.23 251.89,176.23 241.13,170.02 251.89,163.81 240.87,163.81 230.11,170.02 		"/>
	</g>
	<g>
		<polygon fill="#FBBC18" points="251.23,177.37 238.51,170.02 251.23,162.67 252.54,164.94 243.75,170.02 252.54,175.09 		"/>
	</g>
	<g>
		<polygon fill="#67B9E8" points="312.85,152.27 311.54,150 320.33,144.92 311.54,139.84 312.85,137.57 325.58,144.92 		"/>
	</g>
	<g>
		<g>
			<polygon fill="#FBBC18" points="419.05,79.58 452.58,98.95 486.13,118.32 486.13,157.05 486.12,195.79 452.59,215.15 
				419.06,234.51 385.51,215.14 351.97,195.78 351.96,157.04 351.96,118.31 385.5,98.95 			"/>
		</g>
		<g>
			<g>
				<g>
					<path fill="#FFFFFF" d="M418.99,195.56c-0.3,0-0.58-0.15-0.74-0.43c-0.24-0.41-0.1-0.93,0.31-1.17l37.3-21.54v-14.04
						c0-0.47,0.38-0.86,0.86-0.86s0.86,0.38,0.86,0.86v14.53c0,0.31-0.16,0.59-0.43,0.74l-37.73,21.78
						C419.28,195.52,419.13,195.56,418.99,195.56z"/>
					<path fill="#FFFFFF" d="M418.99,195.55c-0.15,0-0.3-0.04-0.43-0.11l-37.73-21.78c-0.27-0.15-0.43-0.44-0.43-0.74v-14.53
						c0-0.47,0.38-0.86,0.86-0.86s0.86,0.38,0.86,0.86v14.03l36.01,20.79v-13.04c0-0.47,0.38-0.86,0.86-0.86s0.86,0.38,0.86,0.86
						v14.52c0,0.31-0.16,0.59-0.43,0.74C419.28,195.51,419.13,195.55,418.99,195.55z"/>
					<path fill="none" stroke="#FFFFFF" stroke-width="1.7153" stroke-linecap="round" stroke-linejoin="round" d="M418.99,194.7"/>
					<path fill="none" stroke="#FFFFFF" stroke-width="1.7153" stroke-linecap="round" stroke-linejoin="round" d="M381.26,172.92"
						/>
					<path fill="#FFFFFF" d="M418.99,181.03c-0.3,0-0.58-0.15-0.74-0.43c-0.24-0.41-0.1-0.93,0.31-1.17l37.73-21.79
						c0.41-0.24,0.93-0.1,1.17,0.31c0.24,0.41,0.1,0.93-0.31,1.17l-37.73,21.79C419.28,180.99,419.13,181.03,418.99,181.03z"/>
					<path fill="#FFFFFF" d="M381.26,144.72c-0.3,0-0.58-0.15-0.74-0.43c-0.24-0.41-0.1-0.93,0.31-1.17l37.73-21.79
						c0.41-0.24,0.93-0.1,1.17,0.31c0.24,0.41,0.1,0.93-0.31,1.17l-37.73,21.79C381.55,144.68,381.4,144.72,381.26,144.72z"/>
				</g>
				<path fill="#FFFFFF" d="M381.26,159.24c-0.47,0-0.86-0.38-0.86-0.86v-14.52c0-0.47,0.38-0.86,0.86-0.86s0.86,0.38,0.86,0.86
					v14.52C382.11,158.86,381.73,159.24,381.26,159.24z"/>
				<path fill="#FFFFFF" d="M418.99,181.03c-0.21,0-0.43-0.08-0.59-0.24l-37.73-36.31c-0.34-0.33-0.35-0.87-0.02-1.21
					c0.33-0.34,0.87-0.35,1.21-0.02l37.73,36.31c0.34,0.33,0.35,0.87,0.02,1.21C419.44,180.94,419.21,181.03,418.99,181.03z"/>
				<path fill="#FFFFFF" d="M426.68,161.61c-1.48,0-3.06-0.59-4.19-1.68c-0.98-0.94-1.47-2.12-1.33-3.24
					c0.12-0.96,0.67-1.77,1.57-2.29c1.85-1.08,4.69-0.59,6.46,1.11c0.98,0.94,1.47,2.12,1.34,3.23c-0.11,0.96-0.67,1.78-1.57,2.31
					C428.29,161.43,427.5,161.61,426.68,161.61z M424.99,155.54c-0.52,0-1.01,0.11-1.41,0.34c-0.43,0.25-0.68,0.59-0.73,1.01
					c-0.07,0.58,0.23,1.23,0.82,1.8c0,0,0,0,0,0c1.2,1.16,3.23,1.56,4.42,0.87c0.42-0.25,0.68-0.6,0.73-1.02
					c0.07-0.57-0.23-1.22-0.82-1.79C427.2,155.97,426.03,155.54,424.99,155.54z"/>
				<path fill="#FFFFFF" d="M421.49,143.88c-0.48,0-1.06-0.13-1.75-0.52c0,0,0,0,0,0c-0.93-0.54-1.82-1.47-2.51-2.61
					c-0.68-1.14-1.09-2.38-1.14-3.48c-0.05-1.29,0.36-2.28,1.17-2.81c0.82-0.53,1.92-0.46,3.01,0.17c0.94,0.54,1.83,1.47,2.52,2.61
					c0.68,1.16,1.08,2.39,1.13,3.48c0.06,1.29-0.36,2.29-1.18,2.81C422.49,143.69,422.07,143.88,421.49,143.88z M420.6,141.87
					c0.51,0.29,0.97,0.37,1.23,0.21c0.27-0.17,0.41-0.65,0.39-1.29c-0.04-0.82-0.35-1.77-0.89-2.68c-0.53-0.87-1.22-1.61-1.9-2
					c-0.51-0.29-0.97-0.37-1.22-0.21c-0.27,0.17-0.41,0.66-0.39,1.29c0.04,0.81,0.36,1.78,0.89,2.67
					C419.23,140.75,419.92,141.48,420.6,141.87z"/>
				<path fill="#FFFFFF" d="M422.29,143.66c-0.3,0-0.58-0.15-0.74-0.43c-0.24-0.41-0.1-0.93,0.31-1.17l15.29-8.83
					c0.23-0.15,0.38-0.63,0.35-1.26c-0.03-0.81-0.36-1.79-0.89-2.69c-0.53-0.88-1.22-1.61-1.9-2c-0.51-0.3-0.97-0.38-1.23-0.21
					l-15.32,8.85c-0.41,0.24-0.94,0.1-1.17-0.31c-0.24-0.41-0.1-0.93,0.31-1.17l15.29-8.83c0.79-0.5,1.89-0.44,2.98,0.19
					c0.93,0.54,1.83,1.46,2.51,2.61c0.68,1.15,1.08,2.39,1.13,3.49c0.06,1.28-0.35,2.28-1.17,2.8l-15.33,8.85
					C422.58,143.62,422.44,143.66,422.29,143.66z"/>
				<path fill="#FFFFFF" d="M430.15,148.39c-0.47,0-0.86-0.38-0.86-0.86v-9.26c0-0.47,0.38-0.86,0.86-0.86s0.86,0.38,0.86,0.86v9.26
					C431,148,430.62,148.39,430.15,148.39z"/>
				<path fill="#FFFFFF" d="M417.54,136.19c-0.21,0-0.42-0.08-0.59-0.23l-2.45-2.3c-0.35-0.32-0.36-0.87-0.04-1.21
					c0.32-0.35,0.87-0.36,1.21-0.04l2.45,2.3c0.35,0.32,0.36,0.87,0.04,1.21C418,136.1,417.77,136.19,417.54,136.19z"/>
				<path fill="#FFFFFF" d="M441.5,159.32c-0.21,0-0.43-0.08-0.6-0.24l-17.36-16.73c-0.34-0.33-0.35-0.87-0.02-1.21
					c0.33-0.34,0.87-0.35,1.21-0.02l17.36,16.73c0.34,0.33,0.35,0.87,0.02,1.21C441.95,159.23,441.72,159.32,441.5,159.32z"/>
				<path fill="#FFFFFF" d="M423.15,156c-0.21,0-0.43-0.08-0.59-0.24l-17.37-16.73c-0.34-0.33-0.35-0.87-0.02-1.21
					c0.33-0.34,0.87-0.35,1.21-0.02l17.37,16.73c0.34,0.33,0.35,0.87,0.02,1.21C423.6,155.91,423.38,156,423.15,156z"/>
				<path fill="#FFFFFF" d="M432.19,164.69c-0.21,0-0.43-0.08-0.59-0.24l-3.67-3.53c-0.34-0.33-0.35-0.87-0.02-1.21
					c0.33-0.34,0.87-0.35,1.21-0.02l3.67,3.53c0.34,0.33,0.35,0.87,0.02,1.21C432.64,164.6,432.42,164.69,432.19,164.69z"/>
				<g>
					<path fill="#FFFFFF" d="M403.67,153.79c-1.47,0-3.05-0.59-4.19-1.69c-0.98-0.94-1.47-2.11-1.34-3.22
						c0.11-0.96,0.67-1.78,1.57-2.31c1.87-1.07,4.71-0.58,6.47,1.12l0,0c0.98,0.94,1.47,2.13,1.33,3.24
						c-0.12,0.96-0.67,1.77-1.57,2.29C405.28,153.61,404.49,153.79,403.67,153.79z M401.98,147.72c-0.52,0-1.01,0.11-1.41,0.33
						c-0.42,0.25-0.68,0.6-0.73,1.02c-0.07,0.57,0.23,1.22,0.82,1.79c1.21,1.16,3.23,1.56,4.42,0.87c0.43-0.24,0.67-0.59,0.73-1.01
						c0.07-0.58-0.23-1.23-0.82-1.8c0,0,0,0,0,0C404.19,148.16,403.02,147.72,401.98,147.72z"/>
					<path fill="#FFFFFF" d="M400.14,148.17c-0.21,0-0.43-0.08-0.59-0.24l-3.67-3.53c-0.34-0.33-0.35-0.87-0.02-1.21
						c0.33-0.34,0.87-0.35,1.21-0.02l3.67,3.53c0.34,0.33,0.35,0.87,0.02,1.21C400.59,148.08,400.37,148.17,400.14,148.17z"/>
					<path fill="#FFFFFF" d="M422.89,170.06c-0.21,0-0.43-0.08-0.59-0.24l-17.37-16.73c-0.34-0.33-0.35-0.87-0.02-1.21
						c0.33-0.34,0.87-0.35,1.21-0.02l17.37,16.73c0.34,0.33,0.35,0.87,0.02,1.21C423.34,169.98,423.11,170.06,422.89,170.06z"/>
				</g>
				<path fill="#FFFFFF" d="M456.72,159.24c-0.21,0-0.43-0.08-0.59-0.24l-23.03-22.17c-0.34-0.33-0.35-0.87-0.02-1.21
					c0.33-0.34,0.87-0.35,1.21-0.02l23.03,22.17c0.34,0.33,0.35,0.87,0.02,1.21C457.17,159.15,456.94,159.24,456.72,159.24z"/>
				<path fill="#FFFFFF" d="M427.03,130.67c-0.21,0-0.43-0.08-0.59-0.24l-8.05-7.74c-0.34-0.33-0.35-0.87-0.02-1.21
					c0.33-0.34,0.87-0.35,1.21-0.02l8.05,7.74c0.34,0.33,0.35,0.87,0.02,1.21C427.48,130.58,427.26,130.67,427.03,130.67z"/>
			</g>
		</g>
		<g>
			<path fill="#192A67" d="M348.11,251.35c0,1.22,0.29,2.15,0.87,2.8s1.43,0.97,2.55,0.97s1.97-0.32,2.54-0.97s0.86-1.58,0.86-2.8
				v-10.24h2.93v10.29c0,1.25-0.25,2.36-0.76,3.32s-1.23,1.71-2.18,2.24s-2.07,0.8-3.39,0.8s-2.45-0.27-3.4-0.8
				s-1.68-1.28-2.19-2.24s-0.76-2.07-0.76-3.32v-10.29h2.93V251.35z"/>
			<path fill="#192A67" d="M363.25,247.32c0.48-0.5,1.07-0.92,1.77-1.25s1.44-0.5,2.24-0.5c1.25,0,2.22,0.36,2.92,1.07
				s1.04,1.65,1.04,2.82v8.06h-2.67v-7.38c0-0.72-0.18-1.27-0.55-1.65s-0.9-0.57-1.61-0.57c-0.59,0-1.17,0.18-1.72,0.55
				s-1.03,0.84-1.42,1.42v7.64h-2.67V245.8h2.67V247.32z"/>
			<path fill="#192A67" d="M376.47,241.44c0.33,0.33,0.49,0.72,0.49,1.17s-0.16,0.84-0.49,1.17s-0.72,0.49-1.17,0.49
				s-0.84-0.16-1.16-0.49s-0.48-0.72-0.48-1.17s0.16-0.84,0.48-1.17s0.71-0.49,1.16-0.49S376.14,241.11,376.47,241.44z
				 M376.66,257.52h-2.7V245.8h2.7V257.52z"/>
			<path fill="#192A67" d="M380.36,247.91h-1.99v-2.11h1.99v-2.06c0-1.19,0.35-2.08,1.04-2.67s1.57-0.89,2.61-0.89
				c0.52,0,1.04,0.08,1.57,0.23v2.2l-0.07,0.05c-0.42-0.14-0.82-0.21-1.2-0.21c-0.39,0-0.7,0.11-0.94,0.33s-0.35,0.55-0.35,0.98
				v2.04h7.03v11.72h-2.67v-9.61h-4.36v9.61h-2.67V247.91z M389.9,241.44c0.33,0.33,0.49,0.72,0.49,1.17s-0.16,0.84-0.49,1.17
				s-0.72,0.49-1.17,0.49s-0.84-0.16-1.17-0.49s-0.49-0.72-0.49-1.17s0.16-0.84,0.49-1.17s0.72-0.49,1.17-0.49
				S389.57,241.11,389.9,241.44z"/>
			<path fill="#192A67" d="M394.92,252.38c0.06,0.95,0.39,1.71,1,2.26s1.37,0.83,2.31,0.83c0.8,0,1.45-0.18,1.97-0.55
				s0.88-0.87,1.1-1.51l2.32,0.14l0.09,0.12c-0.39,1.31-1.06,2.32-2,3.02s-2.12,1.05-3.53,1.05c-1.16,0-2.18-0.25-3.07-0.76
				s-1.58-1.22-2.06-2.14s-0.73-1.98-0.73-3.19c0-1.19,0.27-2.24,0.81-3.16s1.25-1.64,2.14-2.16s1.86-0.77,2.91-0.77
				c1.11,0,2.09,0.24,2.95,0.71s1.53,1.17,2.02,2.07s0.73,1.98,0.73,3.21v0.82H394.92z M401.36,250.44
				c-0.08-0.84-0.41-1.5-1.01-1.98s-1.32-0.71-2.18-0.71c-0.81,0-1.51,0.24-2.1,0.71s-0.96,1.14-1.11,1.98H401.36z"/>
			<path fill="#192A67" d="M417.56,257.52h-2.7v-1.27c-0.41,0.44-0.92,0.8-1.54,1.08s-1.33,0.42-2.14,0.42
				c-0.94,0-1.83-0.24-2.67-0.73s-1.52-1.19-2.04-2.11s-0.77-2.01-0.77-3.26c0-1.27,0.25-2.36,0.75-3.28s1.17-1.62,2.02-2.1
				s1.77-0.71,2.79-0.71c0.73,0,1.41,0.12,2.02,0.35s1.14,0.56,1.59,0.98v-6.49h2.7V257.52z M409.33,254.48
				c0.62,0.65,1.43,0.97,2.41,0.97c0.86,0,1.59-0.28,2.2-0.84s0.91-1.26,0.91-2.09v-1.71c0-0.84-0.3-1.55-0.91-2.11
				s-1.35-0.84-2.23-0.84c-0.97,0-1.77,0.32-2.39,0.97s-0.94,1.59-0.94,2.82S408.71,253.83,409.33,254.48z"/>
			<path fill="#192A67" d="M359.2,276.1v5.79h-2.93v-16.41h5.7c1.25,0,2.34,0.22,3.27,0.66s1.65,1.06,2.16,1.86s0.76,1.75,0.76,2.82
				c0,1.05-0.24,1.95-0.73,2.7s-1.19,1.4-2.11,1.95v0.12l3.68,6.3h-3.3l-3.33-5.79H359.2z M362.2,273.64c0.97,0,1.73-0.25,2.27-0.76
				s0.82-1.21,0.82-2.1c0-0.88-0.27-1.57-0.8-2.07s-1.3-0.76-2.3-0.76h-3v5.7H362.2z"/>
			<path fill="#192A67" d="M372.65,276.76c0.06,0.95,0.39,1.71,1,2.26s1.37,0.83,2.31,0.83c0.8,0,1.45-0.18,1.97-0.55
				s0.88-0.87,1.1-1.51l2.32,0.14l0.09,0.12c-0.39,1.31-1.06,2.32-2,3.02s-2.12,1.05-3.53,1.05c-1.16,0-2.18-0.25-3.07-0.76
				s-1.58-1.22-2.06-2.14s-0.73-1.98-0.73-3.19c0-1.19,0.27-2.24,0.81-3.16s1.25-1.64,2.14-2.16s1.86-0.77,2.91-0.77
				c1.11,0,2.09,0.24,2.95,0.71s1.53,1.17,2.02,2.07s0.73,1.98,0.73,3.21v0.82H372.65z M379.1,274.81c-0.08-0.84-0.41-1.5-1.01-1.98
				s-1.32-0.71-2.18-0.71c-0.81,0-1.51,0.24-2.1,0.71s-0.96,1.14-1.11,1.98H379.1z"/>
			<path fill="#192A67" d="M386.6,271.56c0.98-1.08,2.16-1.62,3.52-1.62c0.73,0,1.34,0.14,1.8,0.42s0.84,0.7,1.12,1.24
				c1.14-1.11,2.41-1.66,3.82-1.66c1.17,0,2.07,0.31,2.68,0.94s0.93,1.47,0.93,2.53v8.48h-2.67v-7.8c0-0.56-0.14-1-0.42-1.32
				s-0.71-0.48-1.29-0.48c-1.02,0-1.87,0.52-2.55,1.57v8.04h-2.67v-7.76c0-0.58-0.14-1.03-0.41-1.36s-0.69-0.49-1.25-0.49
				c-0.5,0-0.97,0.16-1.42,0.48s-0.84,0.74-1.18,1.25v7.88h-2.67v-11.72h2.67V271.56z"/>
			<path fill="#192A67" d="M405.72,265.81c0.33,0.33,0.49,0.72,0.49,1.17s-0.16,0.84-0.49,1.17s-0.72,0.49-1.17,0.49
				s-0.84-0.16-1.16-0.49s-0.48-0.72-0.48-1.17s0.16-0.84,0.48-1.17s0.71-0.49,1.16-0.49S405.39,265.49,405.72,265.81z
				 M405.91,281.89h-2.7v-11.72h2.7V281.89z"/>
			<path fill="#192A67" d="M414.67,275.47l4.08,6.42h-3l-2.65-4.31l-2.67,4.31h-3l4.1-6.42l-3.63-5.3h3.05l2.16,3.28l2.16-3.28h3.05
				L414.67,275.47z"/>
		</g>
	</g>
	<g>
		<path fill="#767497" d="M132.66,246.59c3.14,0.7,5.02,2.2,5.02,4.99c0,3.12-2.55,5.18-5.84,5.18c-3.14,0-5.98-2.04-6.16-5.34h2.18
			c0.21,2.13,1.92,3.28,3.98,3.28c1.97,0,3.59-1.01,3.59-3.05c0-1.88-1.12-2.7-4.27-3.38c-2.81-0.61-4.92-1.71-4.92-4.34
			c0-2.46,2.27-4.05,5.16-4.05c3.26,0,5.34,1.73,5.55,4.69h-2.13c-0.26-1.76-1.45-2.62-3.42-2.62c-1.73,0-2.95,0.77-2.95,1.92
			C128.44,245.3,129.75,245.93,132.66,246.59z"/>
		<path fill="#767497" d="M148.86,256.52h-2.34l-4.27-11.11v11.11H140v-16.41h2.39l5.3,13.59l5.3-13.59h2.39v16.41h-2.25v-11.11
			L148.86,256.52z"/>
		<path fill="#767497" d="M160.62,256.52h-2.25v-16.41h2.25V256.52z"/>
		<path fill="#767497" d="M165.87,240.12v14.34h8.09v2.06h-10.34v-16.41H165.87z"/>
		<path fill="#767497" d="M127.75,269.86c0,3.35-2.41,5.37-6.07,5.37h-3.38v5.67h-2.25v-16.41h5.62
			C125.34,264.49,127.75,266.51,127.75,269.86z M121.73,273.16c2.44,0,3.77-1.03,3.77-3.3s-1.34-3.3-3.77-3.3h-3.42v6.61H121.73z"/>
		<path fill="#767497" d="M131.9,280.9h-2.02v-17.11h2.02V280.9z"/>
		<path fill="#767497" d="M134.31,277.73c0-2.3,1.85-3.47,3.96-3.68l3.66-0.38v-0.8c0-1.41-1.1-2.06-2.6-2.06
			c-1.24,0-2.23,0.56-2.55,1.9h-1.95c0.38-2.62,2.53-3.77,4.64-3.77c2.74,0,4.52,1.48,4.52,3.7v5.48c0,0.75,0.33,1.22,1.03,1.22
			c0.19,0,0.38-0.02,0.61-0.09v1.55c-0.56,0.19-0.94,0.23-1.31,0.23c-1.03,0-1.99-0.42-2.32-1.83c-0.8,0.89-2.32,1.92-3.96,1.92
			C135.84,281.13,134.31,279.82,134.31,277.73z M141.93,277.43v-2.11l-3.52,0.4c-1.38,0.16-2.04,0.98-2.04,1.92
			c0,1.1,0.82,1.62,1.9,1.62C139.7,279.26,140.9,278.46,141.93,277.43z"/>
		<path fill="#767497" d="M157.26,269.18l-6.52,16.41h-2.04l2.09-5.2l-4.64-11.2h2.16l3.14,7.48l0.3,1.43l3.42-8.91H157.26z"/>
		<path fill="#767497" d="M160.66,280.9h-2.02v-17.11h2.02V280.9z"/>
		<path fill="#767497" d="M165.93,265.99c0,0.77-0.63,1.41-1.41,1.41s-1.41-0.63-1.41-1.41s0.63-1.41,1.41-1.41
			S165.93,265.22,165.93,265.99z M165.55,280.9h-2.06v-11.72h2.06V280.9z"/>
		<path fill="#767497" d="M171.84,270.73c-0.91,0-1.99,0.4-1.99,1.34c0,0.87,0.96,1.34,3.07,1.9c2.46,0.66,3.8,1.55,3.8,3.38
			c0,2.16-1.76,3.8-4.43,3.8c-2.79,0-4.59-1.45-4.83-3.89h1.95c0.3,1.2,1.05,2.02,2.93,2.02c1.24,0,2.37-0.59,2.37-1.66
			c0-1.05-1.08-1.52-3.38-2.11c-2.32-0.59-3.45-1.55-3.45-3.38c0-1.71,1.62-3.16,3.96-3.16c2.51,0,4.2,1.29,4.41,3.7h-2.04
			C174.04,271.38,173.12,270.73,171.84,270.73z"/>
		<path fill="#767497" d="M181.94,269.18h2.81v1.88h-2.81v6.98c0,0.77,0.45,1.27,1.45,1.27c0.54,0,0.82-0.07,1.24-0.14v1.73
			c-0.63,0.16-1.08,0.23-1.88,0.23c-1.78,0-2.88-1.01-2.88-2.95v-7.12h-2.32v-1.88h2.32v-3.52l2.06,0.75V269.18z"/>
	</g>
	<g>
		<path fill="#67B9E8" d="M957.23,222.84c-36.85,0-66.82-29.98-66.82-66.82c0-36.84,29.98-66.82,66.82-66.82
			s66.82,29.98,66.82,66.82C1024.05,192.86,994.07,222.84,957.23,222.84z M957.23,91.82c-35.4,0-64.2,28.8-64.2,64.2
			c0,35.4,28.8,64.2,64.2,64.2s64.2-28.8,64.2-64.2C1021.43,120.62,992.63,91.82,957.23,91.82z"/>
		<g>
			<g>
				<path d="M952.84,180.71h-24.4c-0.62,0-1.12-0.5-1.12-1.12v-20.95c0-0.62,0.5-1.12,1.12-1.12h6.83c0.4,0,0.77,0.21,0.97,0.56
					l2.2,3.81h14.39c0.62,0,1.12,0.5,1.12,1.12v16.58C953.96,180.21,953.46,180.71,952.84,180.71z M929.57,178.46h22.15v-14.33
					H937.8c-0.4,0-0.77-0.21-0.97-0.56l-2.2-3.81h-5.06V178.46z"/>
				<path d="M986.01,180.71h-24.39c-0.62,0-1.12-0.5-1.12-1.12v-20.95c0-0.62,0.5-1.12,1.12-1.12h6.83c0.4,0,0.77,0.21,0.97,0.56
					l2.2,3.81h14.38c0.62,0,1.12,0.5,1.12,1.12v16.58C987.14,180.21,986.63,180.71,986.01,180.71z M962.74,178.46h22.14v-14.33
					h-13.91c-0.4,0-0.77-0.21-0.97-0.56l-2.2-3.81h-5.06V178.46z"/>
				<path d="M952.84,154.09h-24.4c-0.62,0-1.12-0.5-1.12-1.12v-20.95c0-0.62,0.5-1.12,1.12-1.12h6.83c0.4,0,0.77,0.21,0.97,0.56
					l2.2,3.81h14.39c0.62,0,1.12,0.5,1.12,1.12v16.58C953.96,153.58,953.46,154.09,952.84,154.09z M929.57,151.84h22.15v-14.33
					H937.8c-0.4,0-0.77-0.21-0.97-0.56l-2.2-3.81h-5.06V151.84z"/>
				<path d="M986.01,154.09h-24.39c-0.62,0-1.12-0.5-1.12-1.12v-20.95c0-0.62,0.5-1.12,1.12-1.12h6.83c0.4,0,0.77,0.21,0.97,0.56
					l2.2,3.81h14.38c0.62,0,1.12,0.5,1.12,1.12v16.58C987.14,153.58,986.63,154.09,986.01,154.09z M962.74,151.84h22.14v-14.33
					h-13.91c-0.4,0-0.77-0.21-0.97-0.56l-2.2-3.81h-5.06V151.84z"/>
				<path d="M943.11,145.26c0.25-0.61,0.24-1.27,0-1.84c-0.23-0.57-0.69-1.04-1.29-1.3c-0.62-0.25-1.27-0.23-1.84,0
					c-0.56,0.24-1.04,0.69-1.3,1.3c-0.25,0.61-0.23,1.27,0,1.83c0.23,0.57,0.69,1.04,1.3,1.3c0.61,0.26,1.27,0.23,1.84,0
					C942.38,146.33,942.86,145.88,943.11,145.26z"/>
				<path d="M961.62,145.47h-8.78c-0.62,0-1.12-0.5-1.12-1.12s0.5-1.12,1.12-1.12h8.78c0.62,0,1.12,0.5,1.12,1.12
					S962.24,145.47,961.62,145.47z"/>
				<path d="M940.9,164.12c-0.62,0-1.12-0.5-1.12-1.12v-10.04c0-0.62,0.5-1.12,1.12-1.12s1.12,0.5,1.12,1.12V163
					C942.02,163.62,941.52,164.12,940.9,164.12z"/>
				<path d="M961.62,163.06c-0.26,0-0.52-0.09-0.73-0.27l-10.57-8.97c-0.47-0.4-0.53-1.11-0.13-1.59c0.4-0.47,1.11-0.53,1.59-0.13
					l10.57,8.97c0.47,0.4,0.53,1.11,0.13,1.59C962.25,162.93,961.94,163.06,961.62,163.06z"/>
			</g>
			<g>
				<path fill="none" stroke="#F0921D" stroke-width="5" d="M900.67,188.46"/>
				<path fill="none" stroke="#F0921D" stroke-width="5" d="M1013.78,188.46"/>
				<path fill="none" stroke="#F0921D" stroke-width="5" d="M957.23,90.51"/>
			</g>
		</g>
	</g>
	<g>
		<path fill="#192A67" d="M691.55,250.77c0,1.22,0.29,2.15,0.87,2.8s1.43,0.97,2.55,0.97s1.97-0.32,2.54-0.97s0.86-1.58,0.86-2.8
			v-10.24h2.93v10.29c0,1.25-0.25,2.36-0.76,3.32s-1.23,1.71-2.18,2.24s-2.07,0.8-3.39,0.8s-2.45-0.27-3.4-0.8s-1.68-1.28-2.19-2.24
			s-0.76-2.07-0.76-3.32v-10.29h2.93V250.77z"/>
		<path fill="#192A67" d="M706.69,246.74c0.48-0.5,1.07-0.92,1.77-1.25s1.44-0.5,2.24-0.5c1.25,0,2.22,0.36,2.92,1.07
			s1.04,1.65,1.04,2.82v8.06h-2.67v-7.38c0-0.72-0.18-1.27-0.55-1.65s-0.9-0.57-1.61-0.57c-0.59,0-1.17,0.18-1.72,0.55
			s-1.03,0.84-1.42,1.42v7.64h-2.67v-11.72h2.67V246.74z"/>
		<path fill="#192A67" d="M719.91,240.85c0.33,0.33,0.49,0.72,0.49,1.17s-0.16,0.84-0.49,1.17s-0.72,0.49-1.17,0.49
			s-0.84-0.16-1.16-0.49s-0.48-0.72-0.48-1.17s0.16-0.84,0.48-1.17s0.71-0.49,1.16-0.49S719.58,240.53,719.91,240.85z M720.1,256.93
			h-2.7v-11.72h2.7V256.93z"/>
		<path fill="#192A67" d="M723.8,247.32h-1.99v-2.11h1.99v-2.06c0-1.19,0.35-2.08,1.04-2.67s1.57-0.89,2.61-0.89
			c0.52,0,1.04,0.08,1.57,0.23v2.2l-0.07,0.05c-0.42-0.14-0.82-0.21-1.2-0.21c-0.39,0-0.7,0.11-0.94,0.33s-0.35,0.55-0.35,0.98v2.04
			h7.03v11.72h-2.67v-9.61h-4.36v9.61h-2.67V247.32z M733.34,240.85c0.33,0.33,0.49,0.72,0.49,1.17s-0.16,0.84-0.49,1.17
			s-0.72,0.49-1.17,0.49s-0.84-0.16-1.17-0.49s-0.49-0.72-0.49-1.17s0.16-0.84,0.49-1.17s0.72-0.49,1.17-0.49
			S733.01,240.53,733.34,240.85z"/>
		<path fill="#192A67" d="M738.36,251.8c0.06,0.95,0.39,1.71,1,2.26s1.37,0.83,2.31,0.83c0.8,0,1.45-0.18,1.97-0.55
			s0.88-0.87,1.1-1.51l2.32,0.14l0.09,0.12c-0.39,1.31-1.06,2.32-2,3.02s-2.12,1.05-3.53,1.05c-1.16,0-2.18-0.25-3.07-0.76
			s-1.58-1.22-2.06-2.14s-0.73-1.98-0.73-3.19c0-1.19,0.27-2.24,0.81-3.16s1.25-1.64,2.14-2.16s1.86-0.77,2.91-0.77
			c1.11,0,2.09,0.24,2.95,0.71s1.53,1.17,2.02,2.07s0.73,1.98,0.73,3.21v0.82H738.36z M744.8,249.85c-0.08-0.84-0.41-1.5-1.01-1.98
			s-1.32-0.71-2.18-0.71c-0.81,0-1.51,0.24-2.1,0.71s-0.96,1.14-1.11,1.98H744.8z"/>
		<path fill="#192A67" d="M761,256.93h-2.7v-1.27c-0.41,0.44-0.92,0.8-1.54,1.08s-1.33,0.42-2.14,0.42c-0.94,0-1.83-0.24-2.67-0.73
			s-1.52-1.19-2.04-2.11s-0.77-2.01-0.77-3.26c0-1.27,0.25-2.36,0.75-3.28s1.17-1.62,2.02-2.1s1.77-0.71,2.79-0.71
			c0.73,0,1.41,0.12,2.02,0.35s1.14,0.56,1.59,0.98v-6.49h2.7V256.93z M752.77,253.9c0.62,0.65,1.43,0.97,2.41,0.97
			c0.86,0,1.59-0.28,2.2-0.84s0.91-1.26,0.91-2.09v-1.71c0-0.84-0.3-1.55-0.91-2.11s-1.35-0.84-2.23-0.84
			c-0.97,0-1.77,0.32-2.39,0.97s-0.94,1.59-0.94,2.82S752.15,253.25,752.77,253.9z"/>
		<path fill="#192A67" d="M703.59,277.49c-0.73,1.28-1.72,2.28-2.98,2.99s-2.66,1.07-4.21,1.07s-2.95-0.36-4.21-1.07
			s-2.25-1.71-2.98-2.99s-1.09-2.74-1.09-4.38s0.36-3.1,1.09-4.38s1.72-2.28,2.98-2.99s2.66-1.07,4.21-1.07s2.95,0.36,4.21,1.07
			s2.25,1.71,2.98,2.99s1.09,2.74,1.09,4.38S704.32,276.21,703.59,277.49z M701.07,270.08c-0.44-0.88-1.06-1.56-1.86-2.05
			s-1.74-0.74-2.8-0.74s-2,0.25-2.8,0.74s-1.43,1.18-1.86,2.05s-0.66,1.88-0.66,3.02s0.22,2.15,0.66,3.02s1.06,1.56,1.86,2.05
			s1.74,0.74,2.8,0.74s2-0.25,2.8-0.74s1.43-1.18,1.86-2.05s0.66-1.88,0.66-3.02S701.51,270.96,701.07,270.08z"/>
		<path fill="#192A67" d="M709.58,271.04c0.98-1.12,2.11-1.69,3.38-1.69c0.42,0,0.76,0.06,1.01,0.19l-0.35,2.16l-0.09,0.07
			c-0.19-0.05-0.45-0.07-0.77-0.07c-0.66,0-1.26,0.19-1.8,0.56s-1,0.91-1.36,1.62v7.43h-2.67v-11.72h2.67V271.04z"/>
		<path fill="#192A67" d="M718.09,265.23c0.33,0.33,0.49,0.72,0.49,1.17s-0.16,0.84-0.49,1.17s-0.72,0.49-1.17,0.49
			s-0.84-0.16-1.16-0.49s-0.48-0.72-0.48-1.17s0.16-0.84,0.48-1.17s0.71-0.49,1.16-0.49S717.76,264.9,718.09,265.23z M718.27,281.31
			h-2.7v-11.72h2.7V281.31z"/>
		<path fill="#192A67" d="M730.64,284.85c-0.99,0.92-2.38,1.38-4.16,1.38c-1.56,0-2.78-0.33-3.64-0.98s-1.4-1.52-1.61-2.6l0.14-0.12
			l2.62-0.16c0.28,1.08,1.09,1.62,2.44,1.62c1.06,0,1.84-0.27,2.34-0.8s0.75-1.25,0.75-2.16v-1.08c-0.5,0.47-1.02,0.81-1.56,1.03
			s-1.2,0.33-1.98,0.33c-1.02,0-1.94-0.24-2.78-0.71s-1.49-1.17-1.97-2.07s-0.71-1.97-0.71-3.19c0-1.2,0.25-2.26,0.76-3.16
			s1.18-1.6,2.02-2.09s1.75-0.73,2.73-0.73c0.77,0,1.44,0.13,2.03,0.39s1.07,0.59,1.46,1v-1.15h2.6v11.46
			C732.12,282.66,731.63,283.92,730.64,284.85z M729.52,274.67c0-0.91-0.3-1.64-0.89-2.21s-1.33-0.86-2.2-0.86
			c-0.97,0-1.76,0.3-2.38,0.91s-0.93,1.55-0.93,2.81s0.31,2.2,0.93,2.81s1.41,0.91,2.38,0.91c0.94,0,1.69-0.28,2.25-0.84
			s0.84-1.29,0.84-2.18V274.67z"/>
		<path fill="#192A67" d="M737.16,265.23c0.33,0.33,0.49,0.72,0.49,1.17s-0.16,0.84-0.49,1.17s-0.72,0.49-1.17,0.49
			s-0.84-0.16-1.16-0.49s-0.48-0.72-0.48-1.17s0.16-0.84,0.48-1.17s0.71-0.49,1.16-0.49S736.84,264.9,737.16,265.23z M737.35,281.31
			h-2.7v-11.72h2.7V281.31z"/>
		<path fill="#192A67" d="M742.76,271.11c0.48-0.5,1.07-0.92,1.77-1.25s1.44-0.5,2.24-0.5c1.25,0,2.22,0.36,2.92,1.07
			s1.04,1.65,1.04,2.82v8.06h-2.67v-7.38c0-0.72-0.18-1.27-0.55-1.65s-0.9-0.57-1.61-0.57c-0.59,0-1.17,0.18-1.72,0.55
			s-1.03,0.84-1.42,1.42v7.64h-2.67v-11.72h2.67V271.11z"/>
	</g>
	<g>
		<path fill="#767497" d="M947.39,250.63h2.25c-0.68,3.35-3.4,5.65-7.31,5.65c-4.45,0-8.16-3.4-8.16-8.44s3.7-8.44,8.16-8.44
			c3.94,0,6.63,2.3,7.31,5.65h-2.25c-0.66-2.23-2.48-3.59-5.09-3.59c-3.56,0-5.84,2.7-5.84,6.38s2.27,6.38,5.84,6.38
			C944.9,254.22,946.73,252.86,947.39,250.63z"/>
		<path fill="#767497" d="M951.65,256.04v-16.41h4.73c5.37,0,8.58,3.26,8.58,8.2s-3.21,8.2-8.58,8.2H951.65z M953.9,241.7v12.28
			h2.39c3.82,0,6.42-1.83,6.42-6.14s-2.6-6.14-6.42-6.14H953.9z"/>
		<path fill="#767497" d="M979.73,239.64v16.41h-2.53l-7.55-12.87v12.87h-2.25v-16.41h2.53l7.55,12.87v-12.87H979.73z"/>
	</g>
	<g>
		<g>
			<path fill="none" stroke="#9D9D9C" stroke-width="1.5" stroke-linecap="round" stroke-linejoin="round" d="M994.88,200.15"/>
		</g>
	</g>
	<g>
		<g>
			<path fill="none" stroke="#9D9D9C" stroke-width="1.5" stroke-linecap="round" stroke-linejoin="round" d="M928.88,197.99"/>
		</g>
	</g>
	<g>
		<path fill="#767497" d="M1209.08,246.09c0,3.35-2.41,5.37-6.07,5.37h-3.38v5.67h-2.25v-16.41h5.62
			C1206.67,240.72,1209.08,242.73,1209.08,246.09z M1203.06,249.39c2.44,0,3.77-1.03,3.77-3.3s-1.34-3.3-3.77-3.3h-3.42v6.61
			H1203.06z"/>
		<path fill="#767497" d="M1213.23,257.12h-2.02v-17.11h2.02V257.12z"/>
		<path fill="#767497" d="M1215.65,253.96c0-2.3,1.85-3.47,3.96-3.68l3.66-0.38v-0.8c0-1.41-1.1-2.06-2.6-2.06
			c-1.24,0-2.23,0.56-2.55,1.9h-1.95c0.38-2.62,2.53-3.77,4.64-3.77c2.74,0,4.52,1.48,4.52,3.7v5.48c0,0.75,0.33,1.22,1.03,1.22
			c0.19,0,0.38-0.02,0.61-0.09v1.55c-0.56,0.19-0.94,0.23-1.31,0.23c-1.03,0-1.99-0.42-2.32-1.83c-0.8,0.89-2.32,1.92-3.96,1.92
			C1217.17,257.36,1215.65,256.05,1215.65,253.96z M1223.26,253.66v-2.11l-3.52,0.4c-1.38,0.16-2.04,0.98-2.04,1.92
			c0,1.1,0.82,1.62,1.9,1.62C1221.04,255.48,1222.23,254.69,1223.26,253.66z"/>
		<path fill="#767497" d="M1238.59,245.41l-6.52,16.41h-2.04l2.09-5.2l-4.64-11.2h2.16l3.14,7.48l0.3,1.43l3.42-8.91H1238.59z"/>
		<path fill="#767497" d="M1241.59,251.92c0.07,2.25,1.55,3.56,3.66,3.56c1.83,0,3.02-0.96,3.45-2.37h1.92
			c-0.63,2.6-2.51,4.24-5.39,4.24c-3.56,0-5.72-2.44-5.72-6.09s2.65-6.09,5.72-6.09c3.14,0,5.51,2.18,5.51,5.95v0.8H1241.59z
			 M1248.79,250.14c-0.16-2.06-1.73-3.09-3.56-3.09s-3.28,1.12-3.61,3.09H1248.79z"/>
		<path fill="#767497" d="M1255.16,246.93c0.8-0.91,1.97-1.76,3.45-1.76c0.42,0,0.73,0.07,0.94,0.19l-0.33,1.71
			c-0.19-0.05-0.35-0.07-0.75-0.07c-1.31,0-2.53,0.8-3.3,2.25v7.88h-2.06v-11.72h2.06V246.93z"/>
	</g>
	<path fill="#67B9E8" d="M149.84,222.83c-36.84,0-66.82-29.97-66.82-66.82c0-36.84,29.98-66.81,66.82-66.81
		c36.85,0,66.82,29.97,66.82,66.81C216.66,192.85,186.69,222.83,149.84,222.83z M149.84,91.82c-35.4,0-64.2,28.8-64.2,64.19
		c0,35.4,28.8,64.19,64.2,64.19c35.4,0,64.2-28.8,64.2-64.19C214.04,120.62,185.24,91.82,149.84,91.82z"/>
	<g>
		<path d="M131.76,144.36c-4.9,0-8.88-3.98-8.88-8.88c0-4.9,3.98-8.88,8.88-8.88c4.9,0,8.88,3.98,8.88,8.88
			C140.64,140.37,136.66,144.36,131.76,144.36z M131.76,128.85c-3.66,0-6.63,2.98-6.63,6.63c0,3.66,2.98,6.63,6.63,6.63
			c3.66,0,6.63-2.97,6.63-6.63C138.39,131.82,135.42,128.85,131.76,128.85z"/>
		<path d="M165.51,144.36c-4.9,0-8.88-3.98-8.88-8.88c0-4.9,3.98-8.88,8.88-8.88c4.9,0,8.88,3.98,8.88,8.88
			C174.4,140.37,170.41,144.36,165.51,144.36z M165.51,128.85c-3.66,0-6.63,2.98-6.63,6.63c0,3.66,2.98,6.63,6.63,6.63
			c3.66,0,6.63-2.97,6.63-6.63C172.15,131.82,169.17,128.85,165.51,128.85z"/>
		<path d="M148.64,144.36c-0.62,0-1.12-0.5-1.12-1.12v-15.51c0-0.62,0.5-1.12,1.12-1.12s1.12,0.5,1.12,1.12v15.51
			C149.76,143.86,149.26,144.36,148.64,144.36z"/>
		<path d="M131.76,166.41c-4.9,0-8.88-3.98-8.88-8.88c0-4.9,3.98-8.88,8.88-8.88c4.9,0,8.88,3.98,8.88,8.88
			C140.64,162.42,136.66,166.41,131.76,166.41z M131.76,150.89c-3.66,0-6.63,2.98-6.63,6.63c0,3.66,2.98,6.63,6.63,6.63
			c3.66,0,6.63-2.98,6.63-6.63C138.39,153.87,135.42,150.89,131.76,150.89z"/>
		<path d="M148.64,166.41c-0.62,0-1.12-0.5-1.12-1.12v-15.51c0-0.62,0.5-1.12,1.12-1.12s1.12,0.5,1.12,1.12v15.51
			C149.76,165.9,149.26,166.41,148.64,166.41z"/>
		<path d="M165.51,166.41c-0.62,0-1.12-0.5-1.12-1.12v-15.51c0-0.62,0.5-1.12,1.12-1.12s1.12,0.5,1.12,1.12v15.51
			C166.64,165.9,166.13,166.41,165.51,166.41z"/>
		<path d="M131.76,166.41c-4.9,0-8.88-3.98-8.88-8.88c0-4.9,3.98-8.88,8.88-8.88c4.9,0,8.88,3.98,8.88,8.88
			C140.64,162.42,136.66,166.41,131.76,166.41z M131.76,150.89c-3.66,0-6.63,2.98-6.63,6.63c0,3.66,2.98,6.63,6.63,6.63
			c3.66,0,6.63-2.98,6.63-6.63C138.39,153.87,135.42,150.89,131.76,150.89z"/>
		<path d="M148.64,166.41c-0.62,0-1.12-0.5-1.12-1.12v-15.51c0-0.62,0.5-1.12,1.12-1.12s1.12,0.5,1.12,1.12v15.51
			C149.76,165.9,149.26,166.41,148.64,166.41z"/>
		<path d="M165.51,188.45c-4.9,0-8.88-3.98-8.88-8.88c0-4.9,3.98-8.88,8.88-8.88c4.9,0,8.88,3.98,8.88,8.88
			C174.4,184.47,170.41,188.45,165.51,188.45z M165.51,172.94c-3.66,0-6.63,2.98-6.63,6.63c0,3.66,2.98,6.63,6.63,6.63
			c3.66,0,6.63-2.98,6.63-6.63C172.15,175.91,169.17,172.94,165.51,172.94z"/>
		<path d="M148.64,188.45c-0.62,0-1.12-0.5-1.12-1.12v-15.51c0-0.62,0.5-1.12,1.12-1.12s1.12,0.5,1.12,1.12v15.51
			C149.76,187.95,149.26,188.45,148.64,188.45z"/>
		<path d="M131.76,188.45c-0.62,0-1.12-0.5-1.12-1.12v-15.51c0-0.62,0.5-1.12,1.12-1.12s1.12,0.5,1.12,1.12v15.51
			C132.89,187.95,132.38,188.45,131.76,188.45z"/>
	</g>
	<path fill="none" stroke="#F0921D" stroke-width="5" d="M673.2,90.6"/>
	<g>
		<path fill="#767497" d="M1060.44,194.77v4.29h-1.62v-11.81h3.73c2.7,0,4.34,1.52,4.34,3.8c0,1.57-0.78,2.58-2.11,3.34l2.72,4.67
			h-1.86l-2.45-4.29H1060.44z M1062.82,193.28c1.54,0,2.45-0.89,2.45-2.28s-0.84-2.28-2.45-2.28h-2.38v4.56H1062.82z"/>
		<path fill="#767497" d="M1070.04,195.31c0.05,1.62,1.11,2.57,2.63,2.57c1.32,0,2.18-0.69,2.48-1.7h1.38
			c-0.46,1.87-1.81,3.05-3.88,3.05c-2.56,0-4.12-1.76-4.12-4.39c0-2.63,1.91-4.39,4.12-4.39c2.26,0,3.97,1.57,3.97,4.29v0.57
			H1070.04z M1075.22,194.02c-0.12-1.48-1.25-2.23-2.57-2.23s-2.36,0.81-2.6,2.23H1075.22z"/>
		<path fill="#767497" d="M1084.77,198.16c-0.64,0.68-1.64,1.06-2.72,1.06c-2.21,0-3.83-1.69-3.83-4.39s1.79-4.39,3.86-4.39
			c1.3,0,2.19,0.57,2.68,1.1v-0.93h1.49v11.81h-1.49V198.16z M1084.77,194.01c0-1.2-1.11-2.21-2.45-2.21
			c-1.42,0-2.62,0.91-2.62,3.04s1.2,3.04,2.62,3.04c1.33,0,2.45-1.05,2.45-2.24V194.01z"/>
		<path fill="#767497" d="M1094.02,197.95c-0.59,0.62-1.7,1.27-2.95,1.27c-1.81,0-2.79-1.08-2.79-2.78v-5.82h1.49v5.55
			c0,1.11,0.61,1.74,1.72,1.74c1.03,0,1.91-0.71,2.53-1.62v-5.67h1.49v8.44h-1.49V197.95z"/>
		<path fill="#767497" d="M1098.86,195.31c0.05,1.62,1.11,2.57,2.63,2.57c1.32,0,2.18-0.69,2.48-1.7h1.38
			c-0.46,1.87-1.81,3.05-3.88,3.05c-2.56,0-4.12-1.76-4.12-4.39c0-2.63,1.91-4.39,4.12-4.39c2.26,0,3.97,1.57,3.97,4.29v0.57
			H1098.86z M1104.04,194.02c-0.12-1.48-1.25-2.23-2.57-2.23s-2.36,0.81-2.6,2.23H1104.04z"/>
		<path fill="#767497" d="M1109.86,191.73c-0.66,0-1.43,0.29-1.43,0.96c0,0.62,0.69,0.96,2.21,1.37c1.77,0.47,2.73,1.11,2.73,2.43
			c0,1.55-1.27,2.73-3.19,2.73c-2.01,0-3.31-1.05-3.48-2.8h1.4c0.22,0.86,0.76,1.45,2.11,1.45c0.89,0,1.7-0.42,1.7-1.2
			c0-0.76-0.78-1.1-2.43-1.52c-1.67-0.42-2.48-1.11-2.48-2.43c0-1.23,1.16-2.28,2.85-2.28c1.81,0,3.02,0.93,3.17,2.67h-1.47
			C1111.45,192.2,1110.79,191.73,1109.86,191.73z"/>
		<path fill="#767497" d="M1117.37,190.61h2.03v1.35h-2.03v5.03c0,0.56,0.32,0.91,1.05,0.91c0.39,0,0.59-0.05,0.89-0.1v1.25
			c-0.46,0.12-0.78,0.17-1.35,0.17c-1.28,0-2.08-0.73-2.08-2.13v-5.13h-1.67v-1.35h1.67v-2.53l1.48,0.54V190.61z"/>
	</g>
	<path fill="#67B9E8" d="M553.75,427.85c-36.85,0-66.82-29.98-66.82-66.82c0-36.84,29.98-66.82,66.82-66.82s66.82,29.98,66.82,66.82
		C620.57,397.88,590.59,427.85,553.75,427.85z M553.75,296.83c-35.4,0-64.2,28.8-64.2,64.2c0,35.4,28.8,64.2,64.2,64.2
		s64.2-28.8,64.2-64.2C617.95,325.63,589.15,296.83,553.75,296.83z"/>
	<g>
		<g>
			<path d="M583.52,380.05h-9.3c-0.62,0-1.12-0.5-1.12-1.12s0.5-1.12,1.12-1.12h8.18v-32.87h-30.73c-0.4,0-0.77-0.21-0.97-0.56
				l-5.02-8.69h-12.7v4.24c0,0.62-0.5,1.12-1.12,1.12s-1.12-0.5-1.12-1.12v-5.37c0-0.62,0.5-1.12,1.12-1.12h14.48
				c0.4,0,0.77,0.21,0.97,0.56l5.02,8.69h31.21c0.62,0,1.12,0.5,1.12,1.12v35.12C584.64,379.54,584.14,380.05,583.52,380.05z"/>
			<path d="M574.22,385.42h-51.67c-0.62,0-1.12-0.5-1.12-1.12v-44.38c0-0.62,0.5-1.12,1.12-1.12h14.48c0.4,0,0.77,0.21,0.97,0.56
				l5.02,8.69h31.2c0.62,0,1.12,0.5,1.12,1.12v35.12C575.34,384.91,574.84,385.42,574.22,385.42z M523.67,383.17h49.42v-32.88
				h-30.73c-0.4,0-0.77-0.21-0.97-0.56l-5.02-8.69h-12.7V383.17z"/>
			<g>
				<path d="M543.08,374.63c-0.21,0-0.41-0.06-0.59-0.17c-0.33-0.21-0.54-0.57-0.54-0.96v-14c0-0.39,0.2-0.75,0.54-0.96
					c0.33-0.21,0.75-0.22,1.1-0.05l13.88,7c0.38,0.19,0.62,0.58,0.62,1s-0.24,0.81-0.62,1l-13.88,7
					C543.43,374.59,543.26,374.63,543.08,374.63z M544.21,361.33v10.34l10.26-5.17L544.21,361.33z"/>
			</g>
		</g>
	</g>
	<g>
		<path fill="#767497" d="M503.45,453.25l0.42,2.06l0.42-2.06l3.89-12.12h2.44l-5.44,16.41h-2.62l-5.44-16.41h2.44L503.45,453.25z"
			/>
		<path fill="#767497" d="M519.69,457.77c-4.55,0-8.16-3.4-8.16-8.44s3.61-8.44,8.16-8.44s8.16,3.4,8.16,8.44
			S524.24,457.77,519.69,457.77z M519.69,442.96c-3.59,0-5.86,2.62-5.86,6.38s2.27,6.38,5.86,6.38s5.86-2.62,5.86-6.38
			S523.28,442.96,519.69,442.96z"/>
		<path fill="#767497" d="M530.28,457.54v-16.41h4.73c5.37,0,8.58,3.26,8.58,8.2s-3.21,8.2-8.58,8.2H530.28z M532.53,443.19v12.28
			h2.39c3.82,0,6.42-1.83,6.42-6.14s-2.6-6.14-6.42-6.14H532.53z"/>
		<path fill="#767497" d="M554.47,457.54h-2.02v-17.11h2.02V457.54z"/>
		<path fill="#767497" d="M559.74,442.63c0,0.77-0.63,1.41-1.41,1.41s-1.41-0.63-1.41-1.41s0.63-1.41,1.41-1.41
			S559.74,441.86,559.74,442.63z M559.37,457.54h-2.06v-11.72h2.06V457.54z"/>
		<path fill="#767497" d="M564.27,447.06c0.89-0.94,2.27-1.48,3.77-1.48c3.07,0,5.32,2.34,5.32,6.09s-2.48,6.09-5.37,6.09
			c-1.8,0-3.05-0.8-3.73-1.52v1.29h-2.06v-17.11h2.06V447.06z M564.27,452.83c0,1.66,1.55,3.07,3.4,3.07c1.97,0,3.63-1.27,3.63-4.22
			s-1.66-4.22-3.63-4.22c-1.85,0-3.4,1.45-3.4,3.12V452.83z"/>
		<path fill="#767497" d="M577.67,447.34c0.8-0.91,1.97-1.76,3.45-1.76c0.42,0,0.73,0.07,0.94,0.19l-0.33,1.71
			c-0.19-0.05-0.35-0.07-0.75-0.07c-1.31,0-2.53,0.8-3.3,2.25v7.88h-2.06v-11.72h2.06V447.34z"/>
		<path fill="#767497" d="M583.35,454.37c0-2.3,1.85-3.47,3.96-3.68l3.66-0.38v-0.8c0-1.41-1.1-2.06-2.6-2.06
			c-1.24,0-2.23,0.56-2.55,1.9h-1.95c0.38-2.62,2.53-3.77,4.64-3.77c2.74,0,4.52,1.48,4.52,3.7v5.48c0,0.75,0.33,1.22,1.03,1.22
			c0.19,0,0.38-0.02,0.61-0.09v1.55c-0.56,0.19-0.94,0.23-1.31,0.23c-1.03,0-1.99-0.42-2.32-1.83c-0.8,0.89-2.32,1.92-3.96,1.92
			C584.87,457.77,583.35,456.46,583.35,454.37z M590.96,454.07v-2.11l-3.52,0.4c-1.38,0.16-2.04,0.98-2.04,1.92
			c0,1.1,0.82,1.62,1.9,1.62C588.74,455.9,589.93,455.1,590.96,454.07z"/>
		<path fill="#767497" d="M598.39,447.34c0.8-0.91,1.97-1.76,3.45-1.76c0.42,0,0.73,0.07,0.94,0.19l-0.33,1.71
			c-0.19-0.05-0.35-0.07-0.75-0.07c-1.31,0-2.53,0.8-3.3,2.25v7.88h-2.06v-11.72h2.06V447.34z"/>
		<path fill="#767497" d="M614.33,445.82l-6.52,16.41h-2.04l2.09-5.2l-4.64-11.2h2.16l3.14,7.48l0.3,1.43l3.42-8.91H614.33z"/>
	</g>
	<g>
		<polygon fill="#FFFFFF" points="1131.35,138.3 1120.34,138.3 1131.1,144.52 1120.34,150.73 1131.35,150.73 1142.11,144.52 		"/>
	</g>
	<g>
		<polygon fill="#FFFFFF" points="1049.01,175.83 1060.03,175.83 1049.27,169.61 1060.03,163.4 1049.01,163.4 1038.25,169.61 		"/>
	</g>
	<g>
		<polygon points="1059.37,176.96 1046.65,169.61 1059.37,162.26 1060.68,164.53 1051.89,169.61 1060.68,174.69 		"/>
	</g>
	<g>
		<polygon fill="#67B9E8" points="1120.99,151.86 1119.68,149.59 1128.47,144.52 1119.68,139.44 1120.99,137.16 1133.72,144.52 		
			"/>
	</g>
	<g>
		<g>
			<path fill="none" stroke="#F0921D" stroke-width="5" d="M1170.82,188.06"/>
		</g>
	</g>
	<g>
		<path fill="#767497" d="M1060.56,103.16v4.29h-1.62V95.64h3.73c2.7,0,4.34,1.52,4.34,3.8c0,1.57-0.78,2.58-2.11,3.34l2.72,4.67
			h-1.86l-2.45-4.29H1060.56z M1062.94,101.68c1.54,0,2.45-0.89,2.45-2.28s-0.84-2.28-2.45-2.28h-2.38v4.56H1062.94z"/>
		<path fill="#767497" d="M1070.16,103.7c0.05,1.62,1.11,2.57,2.63,2.57c1.32,0,2.18-0.69,2.48-1.7h1.38
			c-0.46,1.87-1.81,3.05-3.88,3.05c-2.56,0-4.12-1.76-4.12-4.39c0-2.63,1.91-4.39,4.12-4.39c2.26,0,3.97,1.57,3.97,4.29v0.57
			H1070.16z M1075.34,102.42c-0.12-1.48-1.25-2.23-2.57-2.23s-2.36,0.81-2.6,2.23H1075.34z"/>
		<path fill="#767497" d="M1082.5,110.99c-2.18,0-3.36-1.08-3.56-2.62h1.62c0.17,0.73,0.69,1.27,1.89,1.27
			c1.89,0,2.45-1.11,2.45-2.33v-0.98c-0.74,0.76-1.54,1.11-2.72,1.11c-2.21,0-3.83-1.6-3.83-4.3s1.79-4.3,3.86-4.3
			c1.3,0,2.19,0.57,2.68,1.1v-0.93h1.49v8.39C1086.38,109.56,1084.98,110.99,1082.5,110.99z M1084.9,102.62
			c0-1.42-1.11-2.43-2.45-2.43c-1.42,0-2.62,0.83-2.62,2.95c0,2.13,1.2,2.95,2.62,2.95c1.49,0,2.45-1.05,2.45-2.4V102.62z"/>
		<path fill="#767497" d="M1094.14,106.35c-0.59,0.62-1.71,1.27-2.95,1.27c-1.81,0-2.79-1.08-2.79-2.78v-5.82h1.49v5.55
			c0,1.11,0.61,1.74,1.72,1.74c1.03,0,1.91-0.71,2.53-1.62v-5.67h1.49v8.44h-1.49V106.35z"/>
		<path fill="#767497" d="M1099.27,107.45h-1.45V95.13h1.45V107.45z"/>
		<path fill="#767497" d="M1101.25,105.17c0-1.65,1.33-2.5,2.85-2.65l2.63-0.27v-0.57c0-1.01-0.79-1.49-1.87-1.49
			c-0.89,0-1.6,0.41-1.84,1.37h-1.4c0.27-1.89,1.82-2.72,3.34-2.72c1.97,0,3.26,1.06,3.26,2.67v3.95c0,0.54,0.24,0.88,0.74,0.88
			c0.13,0,0.27-0.02,0.44-0.07v1.11c-0.4,0.13-0.67,0.17-0.94,0.17c-0.74,0-1.43-0.3-1.67-1.32c-0.57,0.64-1.67,1.38-2.85,1.38
			C1102.34,107.62,1101.25,106.67,1101.25,105.17z M1106.73,104.95v-1.52l-2.53,0.29c-1,0.12-1.47,0.71-1.47,1.38
			c0,0.79,0.59,1.16,1.37,1.16C1105.13,106.27,1105.99,105.69,1106.73,104.95z"/>
		<path fill="#767497" d="M1112.32,100.11c0.57-0.66,1.42-1.27,2.48-1.27c0.3,0,0.52,0.05,0.68,0.14l-0.24,1.23
			c-0.14-0.03-0.25-0.05-0.54-0.05c-0.95,0-1.82,0.57-2.38,1.62v5.67h-1.49v-8.44h1.49V100.11z"/>
		<path fill="#767497" d="M1047.75,127.7h-1.45v-12.32h1.45V127.7z"/>
		<path fill="#767497" d="M1051.79,116.97c0,0.56-0.46,1.01-1.01,1.01s-1.01-0.46-1.01-1.01c0-0.56,0.46-1.01,1.01-1.01
			S1051.79,116.41,1051.79,116.97z M1051.52,127.7h-1.48v-8.44h1.48V127.7z"/>
		<path fill="#767497" d="M1056.75,124.98l0.32,1.4l0.32-1.4l2.18-5.72h1.57l-3.27,8.44h-1.59l-3.27-8.44h1.57L1056.75,124.98z"/>
		<path fill="#767497" d="M1063.7,123.95c0.05,1.62,1.11,2.57,2.63,2.57c1.32,0,2.18-0.69,2.48-1.7h1.38
			c-0.46,1.87-1.81,3.05-3.88,3.05c-2.56,0-4.12-1.76-4.12-4.39c0-2.63,1.91-4.39,4.12-4.39c2.26,0,3.97,1.57,3.97,4.29v0.57H1063.7
			z M1068.88,122.67c-0.12-1.48-1.25-2.23-2.57-2.23s-2.36,0.81-2.6,2.23H1068.88z"/>
		<path fill="#767497" d="M1079.67,120.37c-0.66,0-1.43,0.29-1.43,0.96c0,0.62,0.69,0.96,2.21,1.37c1.77,0.47,2.73,1.11,2.73,2.43
			c0,1.55-1.27,2.73-3.19,2.73c-2.01,0-3.31-1.05-3.48-2.8h1.4c0.22,0.86,0.76,1.45,2.11,1.45c0.89,0,1.7-0.42,1.7-1.2
			c0-0.76-0.78-1.1-2.43-1.52c-1.67-0.42-2.48-1.11-2.48-2.43c0-1.23,1.16-2.28,2.85-2.28c1.81,0,3.02,0.93,3.17,2.67h-1.47
			C1081.25,120.85,1080.59,120.37,1079.67,120.37z"/>
		<path fill="#767497" d="M1087.17,119.26h2.03v1.35h-2.03v5.03c0,0.56,0.32,0.91,1.05,0.91c0.39,0,0.59-0.05,0.89-0.1v1.25
			c-0.46,0.12-0.78,0.17-1.35,0.17c-1.28,0-2.08-0.73-2.08-2.13v-5.13h-1.67v-1.35h1.67v-2.53l1.48,0.54V119.26z"/>
		<path fill="#767497" d="M1092.17,120.36c0.57-0.66,1.42-1.27,2.48-1.27c0.3,0,0.52,0.05,0.68,0.14l-0.24,1.23
			c-0.14-0.03-0.25-0.05-0.54-0.05c-0.95,0-1.82,0.57-2.38,1.62v5.67h-1.49v-8.44h1.49V120.36z"/>
		<path fill="#767497" d="M1097.87,123.95c0.05,1.62,1.11,2.57,2.63,2.57c1.32,0,2.18-0.69,2.48-1.7h1.38
			c-0.46,1.87-1.81,3.05-3.88,3.05c-2.56,0-4.12-1.76-4.12-4.39c0-2.63,1.91-4.39,4.12-4.39c2.26,0,3.97,1.57,3.97,4.29v0.57
			H1097.87z M1103.05,122.67c-0.12-1.48-1.25-2.23-2.57-2.23s-2.36,0.81-2.6,2.23H1103.05z"/>
		<path fill="#767497" d="M1106.18,125.42c0-1.65,1.33-2.5,2.85-2.65l2.63-0.27v-0.57c0-1.01-0.79-1.49-1.87-1.49
			c-0.89,0-1.6,0.41-1.84,1.37h-1.4c0.27-1.89,1.82-2.72,3.34-2.72c1.97,0,3.26,1.06,3.26,2.67v3.95c0,0.54,0.24,0.88,0.74,0.88
			c0.13,0,0.27-0.02,0.44-0.07v1.11c-0.4,0.13-0.67,0.17-0.94,0.17c-0.74,0-1.43-0.3-1.67-1.32c-0.57,0.64-1.67,1.38-2.85,1.38
			C1107.27,127.87,1106.18,126.92,1106.18,125.42z M1111.66,125.2v-1.52l-2.53,0.29c-1,0.12-1.47,0.71-1.47,1.38
			c0,0.79,0.59,1.16,1.37,1.16C1110.06,126.52,1110.92,125.94,1111.66,125.2z"/>
		<path fill="#767497" d="M1117.25,120.26c0.66-0.71,1.52-1.16,2.57-1.16c1.08,0,1.69,0.41,2.11,1.22c0.83-0.76,1.75-1.22,2.8-1.22
			c1.72,0,2.48,0.96,2.48,2.28v6.33h-1.49v-5.89c0-0.86-0.44-1.4-1.37-1.4c-0.84,0-1.57,0.42-2.13,1.2v6.09h-1.49v-5.82
			c0-0.89-0.39-1.47-1.35-1.47c-0.81,0-1.59,0.62-2.14,1.4v5.89h-1.49v-8.44h1.49V120.26z"/>
	</g>
	<g>
		<path fill="#767497" d="M533.29,82.91v4.29h-1.62V75.39h3.73c2.7,0,4.34,1.52,4.34,3.8c0,1.57-0.78,2.58-2.11,3.34l2.72,4.67
			h-1.86l-2.45-4.29H533.29z M535.67,81.43c1.54,0,2.45-0.89,2.45-2.28s-0.84-2.28-2.45-2.28h-2.38v4.56H535.67z"/>
		<path fill="#767497" d="M542.9,83.45c0.05,1.62,1.11,2.57,2.63,2.57c1.32,0,2.18-0.69,2.48-1.7h1.38
			c-0.46,1.87-1.81,3.05-3.88,3.05c-2.56,0-4.12-1.76-4.12-4.39c0-2.63,1.91-4.39,4.12-4.39c2.26,0,3.97,1.57,3.97,4.29v0.57H542.9z
			 M548.08,82.17c-0.12-1.48-1.25-2.23-2.57-2.23s-2.36,0.81-2.6,2.23H548.08z"/>
		<path fill="#767497" d="M552.9,79.76c0.66-0.71,1.52-1.16,2.57-1.16c1.08,0,1.69,0.41,2.11,1.22c0.83-0.76,1.75-1.22,2.8-1.22
			c1.72,0,2.48,0.96,2.48,2.28v6.33h-1.49v-5.89c0-0.86-0.44-1.4-1.37-1.4c-0.84,0-1.57,0.42-2.13,1.2v6.09h-1.49v-5.82
			c0-0.89-0.39-1.47-1.35-1.47c-0.81,0-1.59,0.62-2.14,1.4v5.89h-1.49v-8.44h1.49V79.76z"/>
		<path fill="#767497" d="M566.89,76.47c0,0.56-0.46,1.01-1.01,1.01s-1.01-0.46-1.01-1.01c0-0.56,0.46-1.01,1.01-1.01
			S566.89,75.91,566.89,76.47z M566.62,87.2h-1.48v-8.44h1.48V87.2z"/>
		<path fill="#767497" d="M572.78,82.54l2.99,4.66h-1.65l-2.19-3.51l-2.19,3.51h-1.65l2.99-4.66l-2.6-3.78h1.65l1.81,2.68l1.81-2.68
			h1.65L572.78,82.54z"/>
		<path fill="#767497" d="M525.81,107.45h-1.69l-3.07-8v8h-1.62V95.64h1.72l3.81,9.79l3.81-9.79h1.72v11.81h-1.62v-8L525.81,107.45z
			"/>
		<path fill="#767497" d="M541.32,99.5c0,2.41-1.74,3.86-4.37,3.86h-2.43v4.08h-1.62V95.64h4.05
			C539.58,95.64,541.32,97.09,541.32,99.5z M536.98,101.88c1.75,0,2.72-0.74,2.72-2.38s-0.96-2.38-2.72-2.38h-2.46v4.76H536.98z"/>
		<path fill="#767497" d="M548.27,95.64h1.52v7.73h1.42v1.48h-1.42v2.6h-1.62v-2.6h-5.5v-1.48L548.27,95.64z M548.17,103.36v-5.18
			l-3.78,5.18H548.17z"/>
		<path fill="#767497" d="M563.47,99.01l1.6,5.45l0.29,1.5l0.24-1.5l1.59-5.45h1.57l-2.53,8.44h-1.65l-1.86-6.72l-1.84,6.72h-1.65
			l-2.53-8.44h1.57l1.59,5.45l0.24,1.5l0.27-1.5l1.62-5.45H563.47z"/>
		<path fill="#767497" d="M571.9,96.72c0,0.56-0.46,1.01-1.01,1.01s-1.01-0.46-1.01-1.01c0-0.56,0.46-1.01,1.01-1.01
			S571.9,96.16,571.9,96.72z M571.62,107.45h-1.48v-8.44h1.48V107.45z"/>
		<path fill="#767497" d="M576.25,99.01h2.03v1.35h-2.03v5.03c0,0.56,0.32,0.91,1.05,0.91c0.39,0,0.59-0.05,0.89-0.1v1.25
			c-0.46,0.12-0.78,0.17-1.35,0.17c-1.28,0-2.08-0.73-2.08-2.13v-5.13h-1.67v-1.35h1.67v-2.53l1.48,0.54V99.01z"/>
		<path fill="#767497" d="M581.41,100.11c0.59-0.62,1.75-1.27,3.05-1.27c1.81,0,2.89,1.08,2.89,2.78v5.82h-1.49v-5.55
			c0-1.11-0.73-1.74-1.82-1.74c-1,0-2.01,0.64-2.63,1.52v5.77h-1.49V95.13h1.49V100.11z"/>
		<path fill="#767497" d="M520.47,120.37c-0.66,0-1.43,0.29-1.43,0.96c0,0.62,0.69,0.96,2.21,1.37c1.77,0.47,2.73,1.11,2.73,2.43
			c0,1.55-1.27,2.73-3.19,2.73c-2.01,0-3.31-1.05-3.48-2.8h1.4c0.22,0.86,0.76,1.45,2.11,1.45c0.89,0,1.7-0.42,1.7-1.2
			c0-0.76-0.78-1.1-2.43-1.52c-1.67-0.42-2.48-1.11-2.48-2.43c0-1.23,1.16-2.28,2.85-2.28c1.81,0,3.02,0.93,3.17,2.67h-1.47
			C522.06,120.85,521.4,120.37,520.47,120.37z"/>
		<path fill="#767497" d="M527.98,119.26H530v1.35h-2.03v5.03c0,0.56,0.32,0.91,1.05,0.91c0.39,0,0.59-0.05,0.89-0.1v1.25
			c-0.46,0.12-0.78,0.17-1.35,0.17c-1.28,0-2.08-0.73-2.08-2.13v-5.13h-1.67v-1.35h1.67v-2.53l1.48,0.54V119.26z"/>
		<path fill="#767497" d="M531.27,125.42c0-1.65,1.33-2.5,2.85-2.65l2.63-0.27v-0.57c0-1.01-0.79-1.49-1.87-1.49
			c-0.89,0-1.6,0.41-1.84,1.37h-1.4c0.27-1.89,1.82-2.72,3.34-2.72c1.97,0,3.26,1.06,3.26,2.67v3.95c0,0.54,0.24,0.88,0.74,0.88
			c0.13,0,0.27-0.02,0.44-0.07v1.11c-0.4,0.13-0.67,0.17-0.94,0.17c-0.74,0-1.43-0.3-1.67-1.32c-0.57,0.64-1.67,1.38-2.85,1.38
			C532.37,127.87,531.27,126.92,531.27,125.42z M536.75,125.2v-1.52l-2.53,0.29c-1,0.12-1.47,0.71-1.47,1.38
			c0,0.79,0.59,1.16,1.37,1.16C535.15,126.52,536.01,125.94,536.75,125.2z"/>
		<path fill="#767497" d="M542.34,120.36c0.57-0.66,1.42-1.27,2.48-1.27c0.3,0,0.52,0.05,0.68,0.14l-0.24,1.23
			c-0.14-0.03-0.25-0.05-0.54-0.05c-0.95,0-1.82,0.57-2.38,1.62v5.67h-1.49v-8.44h1.49V120.36z"/>
		<path fill="#767497" d="M549.22,119.26h2.03v1.35h-2.03v5.03c0,0.56,0.32,0.91,1.05,0.91c0.39,0,0.59-0.05,0.89-0.1v1.25
			c-0.46,0.12-0.78,0.17-1.35,0.17c-1.28,0-2.08-0.73-2.08-2.13v-5.13h-1.67v-1.35h1.67v-2.53l1.48,0.54V119.26z"/>
		<path fill="#767497" d="M560.04,119.26h2.03v1.35h-2.03v5.03c0,0.56,0.32,0.91,1.05,0.91c0.39,0,0.59-0.05,0.89-0.1v1.25
			c-0.46,0.12-0.78,0.17-1.35,0.17c-1.28,0-2.08-0.73-2.08-2.13v-5.13h-1.67v-1.35h1.67v-2.53l1.48,0.54V119.26z"/>
		<path fill="#767497" d="M565.39,116.97c0,0.56-0.46,1.01-1.01,1.01s-1.01-0.46-1.01-1.01c0-0.56,0.46-1.01,1.01-1.01
			S565.39,116.41,565.39,116.97z M565.12,127.7h-1.48v-8.44h1.48V127.7z"/>
		<path fill="#767497" d="M568.88,120.26c0.66-0.71,1.52-1.16,2.57-1.16c1.08,0,1.69,0.41,2.11,1.22c0.83-0.76,1.75-1.22,2.8-1.22
			c1.72,0,2.48,0.96,2.48,2.28v6.33h-1.49v-5.89c0-0.86-0.44-1.4-1.37-1.4c-0.84,0-1.57,0.42-2.13,1.2v6.09h-1.49v-5.82
			c0-0.89-0.39-1.47-1.35-1.47c-0.81,0-1.59,0.62-2.14,1.4v5.89h-1.49v-8.44h1.49V120.26z"/>
		<path fill="#767497" d="M582.2,123.95c0.05,1.62,1.11,2.57,2.63,2.57c1.32,0,2.18-0.69,2.48-1.7h1.38
			c-0.46,1.87-1.81,3.05-3.88,3.05c-2.56,0-4.12-1.76-4.12-4.39c0-2.63,1.91-4.39,4.12-4.39c2.26,0,3.97,1.57,3.97,4.29v0.57H582.2z
			 M587.38,122.67c-0.12-1.48-1.25-2.23-2.57-2.23s-2.36,0.81-2.6,2.23H587.38z"/>
	</g>
	<g>
		<path fill="#767497" d="M261.53,119.75c0,2.41-1.74,3.86-4.37,3.86h-2.43v4.08h-1.62v-11.81h4.05
			C259.79,115.89,261.53,117.34,261.53,119.75z M257.19,122.13c1.75,0,2.72-0.74,2.72-2.38s-0.96-2.38-2.72-2.38h-2.46v4.76H257.19z
			"/>
		<path fill="#767497" d="M264.75,127.7h-1.45v-12.32h1.45V127.7z"/>
		<path fill="#767497" d="M266.72,125.42c0-1.65,1.33-2.5,2.85-2.65l2.63-0.27v-0.57c0-1.01-0.79-1.49-1.87-1.49
			c-0.89,0-1.6,0.41-1.84,1.37h-1.4c0.27-1.89,1.82-2.72,3.34-2.72c1.97,0,3.26,1.06,3.26,2.67v3.95c0,0.54,0.24,0.88,0.74,0.88
			c0.13,0,0.27-0.02,0.44-0.07v1.11c-0.4,0.13-0.67,0.17-0.94,0.17c-0.74,0-1.43-0.3-1.67-1.32c-0.57,0.64-1.67,1.38-2.85,1.38
			C267.82,127.87,266.72,126.92,266.72,125.42z M272.21,125.2v-1.52l-2.53,0.29c-1,0.12-1.47,0.71-1.47,1.38
			c0,0.79,0.59,1.16,1.37,1.16C270.6,126.52,271.47,125.94,272.21,125.2z"/>
		<path fill="#767497" d="M283.48,119.26l-4.69,11.81h-1.47l1.5-3.75l-3.34-8.07h1.55l2.26,5.38l0.22,1.03l2.46-6.41H283.48z"/>
		<path fill="#767497" d="M286.16,127.7h-1.45v-12.32h1.45V127.7z"/>
		<path fill="#767497" d="M290.19,116.97c0,0.56-0.46,1.01-1.01,1.01s-1.01-0.46-1.01-1.01c0-0.56,0.46-1.01,1.01-1.01
			S290.19,116.41,290.19,116.97z M289.92,127.7h-1.48v-8.44h1.48V127.7z"/>
		<path fill="#767497" d="M294.68,120.37c-0.66,0-1.43,0.29-1.43,0.96c0,0.62,0.69,0.96,2.21,1.37c1.77,0.47,2.73,1.11,2.73,2.43
			c0,1.55-1.27,2.73-3.19,2.73c-2.01,0-3.31-1.05-3.48-2.8h1.4c0.22,0.86,0.76,1.45,2.11,1.45c0.89,0,1.7-0.42,1.7-1.2
			c0-0.76-0.78-1.1-2.43-1.52c-1.67-0.42-2.48-1.11-2.48-2.43c0-1.23,1.16-2.28,2.85-2.28c1.81,0,3.02,0.93,3.17,2.67h-1.47
			C296.27,120.85,295.61,120.37,294.68,120.37z"/>
		<path fill="#767497" d="M302.19,119.26h2.03v1.35h-2.03v5.03c0,0.56,0.32,0.91,1.05,0.91c0.39,0,0.59-0.05,0.89-0.1v1.25
			c-0.46,0.12-0.78,0.17-1.35,0.17c-1.28,0-2.08-0.73-2.08-2.13v-5.13h-1.67v-1.35h1.67v-2.53l1.48,0.54V119.26z"/>
	</g>
	<g>
		<path fill="#767497" d="M780.17,115.88v10.33h5.82v1.49h-7.44v-11.81H780.17z"/>
		<path fill="#767497" d="M789.57,116.97c0,0.56-0.46,1.01-1.01,1.01s-1.01-0.46-1.01-1.01c0-0.56,0.46-1.01,1.01-1.01
			S789.57,116.41,789.57,116.97z M789.3,127.7h-1.48v-8.44h1.48V127.7z"/>
		<path fill="#767497" d="M794.53,124.98l0.32,1.4l0.32-1.4l2.18-5.72h1.57l-3.28,8.44h-1.59l-3.27-8.44h1.57L794.53,124.98z"/>
		<path fill="#767497" d="M801.48,123.95c0.05,1.62,1.11,2.57,2.63,2.57c1.32,0,2.18-0.69,2.48-1.7h1.38
			c-0.46,1.87-1.8,3.05-3.88,3.05c-2.56,0-4.12-1.76-4.12-4.39c0-2.63,1.91-4.39,4.12-4.39c2.26,0,3.96,1.57,3.96,4.29v0.57H801.48z
			 M806.66,122.67c-0.12-1.48-1.25-2.23-2.56-2.23s-2.36,0.81-2.6,2.23H806.66z"/>
		<path fill="#767497" d="M817.44,120.37c-0.66,0-1.43,0.29-1.43,0.96c0,0.62,0.69,0.96,2.21,1.37c1.77,0.47,2.73,1.11,2.73,2.43
			c0,1.55-1.27,2.73-3.19,2.73c-2.01,0-3.31-1.05-3.48-2.8h1.4c0.22,0.86,0.76,1.45,2.11,1.45c0.89,0,1.7-0.42,1.7-1.2
			c0-0.76-0.78-1.1-2.43-1.52c-1.67-0.42-2.48-1.11-2.48-2.43c0-1.23,1.16-2.28,2.85-2.28c1.81,0,3.02,0.93,3.17,2.67h-1.47
			C819.03,120.85,818.37,120.37,817.44,120.37z"/>
		<path fill="#767497" d="M824.95,119.26h2.03v1.35h-2.03v5.03c0,0.56,0.32,0.91,1.05,0.91c0.39,0,0.59-0.05,0.89-0.1v1.25
			c-0.46,0.12-0.78,0.17-1.35,0.17c-1.28,0-2.07-0.73-2.07-2.13v-5.13h-1.67v-1.35h1.67v-2.53l1.48,0.54V119.26z"/>
		<path fill="#767497" d="M829.95,120.36c0.57-0.66,1.42-1.27,2.48-1.27c0.3,0,0.52,0.05,0.68,0.14l-0.24,1.23
			c-0.13-0.03-0.25-0.05-0.54-0.05c-0.95,0-1.82,0.57-2.38,1.62v5.67h-1.48v-8.44h1.48V120.36z"/>
		<path fill="#767497" d="M835.65,123.95c0.05,1.62,1.11,2.57,2.63,2.57c1.32,0,2.18-0.69,2.48-1.7h1.38
			c-0.46,1.87-1.8,3.05-3.88,3.05c-2.56,0-4.12-1.76-4.12-4.39c0-2.63,1.91-4.39,4.12-4.39c2.26,0,3.96,1.57,3.96,4.29v0.57H835.65z
			 M840.83,122.67c-0.12-1.48-1.25-2.23-2.56-2.23s-2.36,0.81-2.6,2.23H840.83z"/>
		<path fill="#767497" d="M843.96,125.42c0-1.65,1.33-2.5,2.85-2.65l2.63-0.27v-0.57c0-1.01-0.79-1.49-1.87-1.49
			c-0.89,0-1.6,0.41-1.84,1.37h-1.4c0.27-1.89,1.82-2.72,3.34-2.72c1.97,0,3.26,1.06,3.26,2.67v3.95c0,0.54,0.24,0.88,0.74,0.88
			c0.13,0,0.27-0.02,0.44-0.07v1.11c-0.4,0.13-0.68,0.17-0.95,0.17c-0.74,0-1.43-0.3-1.67-1.32c-0.57,0.64-1.67,1.38-2.85,1.38
			C845.05,127.87,843.96,126.92,843.96,125.42z M849.44,125.2v-1.52l-2.53,0.29c-1,0.12-1.47,0.71-1.47,1.38
			c0,0.79,0.59,1.16,1.37,1.16C847.84,126.52,848.7,125.94,849.44,125.2z"/>
		<path fill="#767497" d="M855.02,120.26c0.66-0.71,1.52-1.16,2.57-1.16c1.08,0,1.69,0.41,2.11,1.22c0.83-0.76,1.75-1.22,2.8-1.22
			c1.72,0,2.48,0.96,2.48,2.28v6.33h-1.48v-5.89c0-0.86-0.44-1.4-1.37-1.4c-0.84,0-1.57,0.42-2.13,1.2v6.09h-1.48v-5.82
			c0-0.89-0.39-1.47-1.35-1.47c-0.81,0-1.59,0.62-2.14,1.4v5.89h-1.48v-8.44h1.48V120.26z"/>
	</g>
</g>
</svg>
